<?xml version="1.0" encoding="iso-8859-1"?>
<!-- Generator: Adobe Illustrator 19.0.0, SVG Export Plug-In . SVG Version: 6.00 Build 0)  -->
<svg version="1.1" id="Layer_1" xmlns="http://www.w3.org/2000/svg" xmlns:xlink="http://www.w3.org/1999/xlink" x="0px" y="0px"
	 viewBox="0 0 503.467 503.467" style="enable-background:new 0 0 503.467 503.467;" xml:space="preserve">
<g transform="translate(1 1)">
	<path style="fill:#AAB1BA;" d="M361.667,3.267v68.267h-256c-18.773,0-34.133,15.36-34.133,34.133V395.8
		c0,18.773-15.36,34.133-34.133,34.133S3.267,414.573,3.267,395.8V3.267H361.667z M139.8,105.667v324.267H37.4
		c18.773,0,34.133-15.36,34.133-34.133V105.667c0-18.773,15.36-34.133,34.133-34.133S139.8,86.893,139.8,105.667z"/>
	<path style="fill:#ECF4F7;" d="M498.2,105.667V498.2H139.8v-68.267V105.667c0-18.773-15.36-34.133-34.133-34.133h256h102.4
		C482.84,71.533,498.2,86.893,498.2,105.667"/>
</g>
<path style="fill:#51565F;" d="M499.2,503.467H140.8c-2.56,0-4.267-1.707-4.267-4.267v-64H89.6c-2.56,0-4.267-1.707-4.267-4.267
	c0-2.56,1.707-4.267,4.267-4.267h46.933v-320c0-16.213-13.653-29.867-29.867-29.867S76.8,90.453,76.8,106.667V396.8
	c0,21.333-17.067,38.4-38.4,38.4S0,418.133,0,396.8V4.267C0,1.707,1.707,0,4.267,0h358.4c2.56,0,4.267,1.707,4.267,4.267V38.4
	c0,2.56-1.707,4.267-4.267,4.267S358.4,40.96,358.4,38.4V8.533H8.533V396.8c0,16.213,13.653,29.867,29.867,29.867
	s29.867-13.653,29.867-29.867V106.667c0-21.333,17.067-38.4,38.4-38.4s38.4,17.067,38.4,38.4v388.267h349.867V106.667
	c0-16.213-13.653-29.867-29.867-29.867H166.4c-2.56,0-4.267-1.707-4.267-4.267c0-2.56,1.707-4.267,4.267-4.267h298.667
	c21.333,0,38.4,17.067,38.4,38.4V499.2C503.467,501.76,501.76,503.467,499.2,503.467z M405.333,426.667
	c-2.56,0-4.267-1.707-4.267-4.267v-4.267c-14.507-1.707-25.6-14.507-25.6-29.867c0-2.56,1.707-4.267,4.267-4.267
	c2.56,0,4.267,1.707,4.267,4.267c0,11.947,9.387,21.333,21.333,21.333c11.947,0,21.333-9.387,21.333-21.333
	c0-11.947-9.387-21.333-21.333-21.333c-16.213,0-29.867-13.653-29.867-29.867c0-15.36,11.093-27.307,25.6-29.867v-4.267
	c0-2.56,1.707-4.267,4.267-4.267s4.267,1.707,4.267,4.267v4.267c14.507,1.707,25.6,14.507,25.6,29.867
	c0,2.56-1.707,4.267-4.267,4.267s-4.267-1.707-4.267-4.267c0-11.947-9.387-21.333-21.333-21.333
	c-11.947,0-21.333,9.387-21.333,21.333s9.387,21.333,21.333,21.333c16.213,0,29.867,13.653,29.867,29.867
	c0,15.36-11.093,27.307-25.6,29.867v4.267C409.6,424.96,407.893,426.667,405.333,426.667z M320,418.133h-68.267
	c-2.56,0-4.267-1.707-4.267-4.267c0-2.56,1.707-4.267,4.267-4.267H320c2.56,0,4.267,1.707,4.267,4.267
	C324.267,416.427,322.56,418.133,320,418.133z M217.6,418.133h-8.533c-2.56,0-4.267-1.707-4.267-4.267
	c0-2.56,1.707-4.267,4.267-4.267h8.533c2.56,0,4.267,1.707,4.267,4.267C221.867,416.427,220.16,418.133,217.6,418.133z
	 M328.533,366.933h-76.8c-2.56,0-4.267-1.707-4.267-4.267s1.707-4.267,4.267-4.267h76.8c2.56,0,4.267,1.707,4.267,4.267
	S331.093,366.933,328.533,366.933z M217.6,366.933h-8.533c-2.56,0-4.267-1.707-4.267-4.267s1.707-4.267,4.267-4.267h8.533
	c2.56,0,4.267,1.707,4.267,4.267S220.16,366.933,217.6,366.933z M311.467,315.733h-59.733c-2.56,0-4.267-1.707-4.267-4.267
	c0-2.56,1.707-4.267,4.267-4.267h59.733c2.56,0,4.267,1.707,4.267,4.267C315.733,314.027,314.027,315.733,311.467,315.733z
	 M217.6,315.733h-8.533c-2.56,0-4.267-1.707-4.267-4.267c0-2.56,1.707-4.267,4.267-4.267h8.533c2.56,0,4.267,1.707,4.267,4.267
	C221.867,314.027,220.16,315.733,217.6,315.733z M430.933,230.4H209.067c-2.56,0-4.267-1.707-4.267-4.267s1.707-4.267,4.267-4.267
	h221.867c2.56,0,4.267,1.707,4.267,4.267S433.493,230.4,430.933,230.4z M396.8,179.2h-51.2c-2.56,0-4.267-1.707-4.267-4.267
	c0-2.56,1.707-4.267,4.267-4.267h51.2c2.56,0,4.267,1.707,4.267,4.267C401.067,177.493,399.36,179.2,396.8,179.2z M311.467,179.2
	h-102.4c-2.56,0-4.267-1.707-4.267-4.267c0-2.56,1.707-4.267,4.267-4.267h102.4c2.56,0,4.267,1.707,4.267,4.267
	C315.733,177.493,314.027,179.2,311.467,179.2z"/>
<g>
</g>
<g>
</g>
<g>
</g>
<g>
</g>
<g>
</g>
<g>
</g>
<g>
</g>
<g>
</g>
<g>
</g>
<g>
</g>
<g>
</g>
<g>
</g>
<g>
</g>
<g>
</g>
<g>
</g>
</svg>
